<?xml version="1.0" encoding="UTF-8"?><svg id="_層_1" xmlns="http://www.w3.org/2000/svg" xmlns:xlink="http://www.w3.org/1999/xlink" viewBox="0 0 64 64"><defs><style>.cls-1,.cls-2{fill:#fff;}.cls-3{fill:url(#_命名漸層_20);}.cls-2{opacity:.75;}</style><linearGradient id="_命名漸層_20" x1="11.63" y1="12.2" x2="51.23" y2="51.8" gradientTransform="matrix(1, 0, 0, 1, 0, 0)" gradientUnits="userSpaceOnUse"><stop offset="0" stop-color="#fd3c46"/><stop offset=".53" stop-color="#ff8761"/><stop offset="1" stop-color="#fbd45f"/></linearGradient></defs><circle class="cls-3" cx="31.43" cy="32" r="28"/><g><path class="cls-2" d="M52.32,32h-9.76l-12.47-12.47c-.69-.69-.2-1.86,.77-1.86h6.68c.29,0,.57,.11,.77,.32l14.01,14.01Z"/><path class="cls-1" d="M52.32,32l-14.01,14.01c-.2,.2-.48,.32-.77,.32h-6.68c-.97,0-1.45-1.17-.77-1.86l12.47-12.47h9.76Z"/><path class="cls-2" d="M36.23,32h-9.76l-12.47-12.47c-.69-.69-.2-1.86,.77-1.86h6.68c.29,0,.57,.11,.77,.32l14.01,14.01Z"/><path class="cls-1" d="M36.23,32l-14.01,14.01c-.2,.2-.48,.32-.77,.32h-6.68c-.97,0-1.45-1.17-.77-1.86l12.47-12.47h9.76Z"/></g></svg>